<svg id="Capa_1" enable-background="new 0 0 512 512" height="512" viewBox="0 0 512 512" width="512" xmlns="http://www.w3.org/2000/svg"><g><path d="m344.96 352.09-30 90h-117.92l-30-90z" fill="#6e76e4"/><path d="m344.96 352.09-30 90h-58.96v-90z" fill="#515bdf"/><g><path d="m151.325 369.375-29.65-4.565-18.042 117.19h-27.241v30h84.217v-30h-26.623z" fill="#e8e3f0"/><path d="m408.367 482-18.042-117.19-29.65 4.565 17.339 112.625h-26.622v30h84.217v-30z" fill="#d3cbe4"/></g><path d="m427 293.74v73.35h-342v-73.35l41-36 130-10.01 130 10.01z" fill="#4e4e88"/><path d="m427 293.74v73.35h-171v-119.36l130 10.01z" fill="#363671"/><path d="m386 220v7.73l-130 10-130-10v-7.73c0-71.8 58.2-130 130-130s130 58.2 130 130z" fill="#989eec"/><path d="m386 227.73-130 10v-147.73c71.8 0 130 58.2 130 130z" fill="#6e76e4"/><path d="m256 352.09 10 15-10 15h-200v-30z" fill="#363671"/><g><path d="m151 289.918h30v30h-30z" fill="#363671"/><path d="m211 289.918h30v30h-30z" fill="#363671"/><g fill="#16164d"><path d="m271 289.918h30v30h-30z"/><path d="m331 289.918h30v30h-30z"/></g></g><g><circle cx="256" cy="45" fill="#fbf3f3" r="45"/><path d="m301 45c0 24.81-20.18 45-45 45v-90c24.82 0 45 20.19 45 45z" fill="#e8e3f0"/></g><path d="m256 227.73 10 16-10 14h-130v-30z" fill="#6e76e4"/><path d="m256 227.73h130v30h-130z" fill="#515bdf"/><path d="m256 352.09h200v30h-200z" fill="#16164d"/></g></svg>